<svg xmlns="http://www.w3.org/2000/svg" width="64" height="64" viewBox="0 0 64 64" fill="none">
  <defs>
    <linearGradient id="g" x1="0" y1="0" x2="64" y2="64" gradientUnits="userSpaceOnUse">
      <stop stop-color="#A855F7"/>
      <stop offset="1" stop-color="#E879F9"/>
    </linearGradient>
  </defs>
  <rect x="6" y="6" width="52" height="52" rx="16" fill="url(#g)"/>
  <path d="M22 28c0-2.2 1.8-4 4-4h12c2.2 0 4 1.8 4 4v2h3c1.1 0 2 0.9 2 2v6c0 1.1-0.9 2-2 2h-3v2c0 2.2-1.8 4-4 4H26c-2.2 0-4-1.8-4-4V28z" fill="#fff" opacity="0.95"/>
  <path d="M28 32h8" stroke="#6D28D9" stroke-width="3" stroke-linecap="round" opacity="0.9"/>
</svg>
